<?xml version="1.0" encoding="utf-8"?>
<!-- Generator: Adobe Illustrator 19.0.0, SVG Export Plug-In . SVG Version: 6.00 Build 0)  -->
<svg version="1.1" id="Capa_1" xmlns="http://www.w3.org/2000/svg" xmlns:xlink="http://www.w3.org/1999/xlink" x="0px" y="0px"
	 width="960px" height="560px" viewBox="0 0 960 560" style="enable-background:new 0 0 960 560;" xml:space="preserve">
<style type="text/css">
	.st0{fill:#006DF0;}
	.st1{fill:none;}
	.st2{fill:#545454;}
	.st3{font-family:'OpenSans';}
	.st4{font-size:104.3283px;}
</style>
<g id="XMLID_2_">
	<path id="XMLID_6_" class="st0" d="M149.5,324.1c29.5,0,53.5-24,53.5-53.5s-24-53.5-53.5-53.5S96,241.1,96,270.6
		S120.1,324.1,149.5,324.1z M149.5,247.3c12.9,0,23.2,10.4,23.2,23.2c0,12.9-10.4,23.2-23.2,23.2s-23.2-10.4-23.2-23.2
		C126.3,257.7,136.8,247.3,149.5,247.3z"/>
	<path id="XMLID_3_" class="st0" d="M295.1,267.1c-0.4-0.9-11.3-20.8-34.7-40.9c-21.5-18.5-58.3-40.5-110.8-40.5
		s-89.4,22-110.9,40.5c-23.3,20-34.2,40-34.7,40.9c-1.2,2.2-1.2,4.8,0,7c0.4,0.9,11.3,20.8,34.6,40.9
		c21.5,18.5,58.2,40.5,110.9,40.5s89.4-22,110.9-40.5c23.3-20,34.1-40,34.6-40.9C296.3,271.9,296.3,269.3,295.1,267.1z M149.5,202.3
		c37.6,0,68.3,30.6,68.3,68.3s-30.6,68.2-68.3,68.2c-37.6,0-68.3-30.6-68.3-68.3S111.9,202.3,149.5,202.3z"/>
</g>
<rect id="XMLID_1_" x="423" y="242.3" class="st1" width="619" height="187.4"/>
<text id="XMLID_9_" transform="matrix(1 0 0 1 307 302.8174)" class="st2 st3 st4">OFTAL MEDIC</text>
</svg>
